<svg xmlns="http://www.w3.org/2000/svg" viewBox="0 0 24 24"><defs><style>.cls-1{fill:#fff;fill-rule:evenodd;}</style></defs><g id="Layer_2" data-name="Layer 2"><g id="Layer_1-2" data-name="Layer 1"><path class="cls-1" d="M1.5,12A10.48,10.48,0,1,0,4.57,4.57,10.5,10.5,0,0,0,1.5,12ZM24,12a12,12,0,1,1-3.51-8.49A12,12,0,0,1,24,12ZM6.75,11.25a.75.75,0,0,0,0,1.5h8.69L12.22,16A.75.75,0,0,0,13.28,17l4.5-4.5a.75.75,0,0,0,0-1.06h0L13.28,7A.63.63,0,0,0,13,6.81a.73.73,0,0,0-.58,0,.71.71,0,0,0-.4.4.74.74,0,0,0,.16.82l3.22,3.22Z"/></g></g></svg>