<svg xmlns="http://www.w3.org/2000/svg" width="141.779" height="24" viewBox="0 0 141.779 24"><g transform="translate(-503 467)"><path d="M7.057,12.519h4.99v6.924a13.809,13.809,0,0,1-2.314.566,17.157,17.157,0,0,1-2.646.185,7.387,7.387,0,0,1-3.76-.889,5.738,5.738,0,0,1-2.314-2.529,8.98,8.98,0,0,1-.791-3.916A8.185,8.185,0,0,1,1.09,8.994,6.18,6.18,0,0,1,3.619,6.436,8.117,8.117,0,0,1,7.6,5.518a10.908,10.908,0,0,1,2.256.225,9.754,9.754,0,0,1,1.992.615L11.217,7.8a11.694,11.694,0,0,0-1.748-.586,7.834,7.834,0,0,0-1.963-.244,5.892,5.892,0,0,0-3,.723A4.81,4.81,0,0,0,2.6,9.736a6.956,6.956,0,0,0-.654,3.125,7.779,7.779,0,0,0,.576,3.115,4.376,4.376,0,0,0,1.8,2.051,6.043,6.043,0,0,0,3.145.733,11.016,11.016,0,0,0,1.66-.108,12.728,12.728,0,0,0,1.26-.273V14H7.057ZM19.381,9.1a4.36,4.36,0,0,1,2.344.605,3.92,3.92,0,0,1,1.494,1.7,5.836,5.836,0,0,1,.517,2.539v1.006H16.344a4.2,4.2,0,0,0,.937,2.871,3.3,3.3,0,0,0,2.559.986,7.819,7.819,0,0,0,1.8-.186,9.9,9.9,0,0,0,1.621-.547V19.5a7.9,7.9,0,0,1-1.611.527,9.239,9.239,0,0,1-1.875.166,5.567,5.567,0,0,1-2.7-.625A4.372,4.372,0,0,1,15.3,17.715a6.419,6.419,0,0,1-.635-2.988,7.134,7.134,0,0,1,.576-2.988A4.314,4.314,0,0,1,19.381,9.1Zm-.02,1.328a2.659,2.659,0,0,0-2.07.85,4,4,0,0,0-.918,2.373h5.664a4.574,4.574,0,0,0-.3-1.68,2.358,2.358,0,0,0-.869-1.133A2.565,2.565,0,0,0,19.361,10.43Zm10.586,8.438a5.1,5.1,0,0,0,.82-.068,3.751,3.751,0,0,0,.684-.166v1.26a3.439,3.439,0,0,1-.791.215,5.614,5.614,0,0,1-.977.088,3.926,3.926,0,0,1-1.543-.293,2.39,2.39,0,0,1-1.113-1.016,3.974,3.974,0,0,1-.41-1.973V10.566H25.094V9.775l1.533-.635.644-2.324h.976V9.3h3.135v1.27H28.248v6.3a2.154,2.154,0,0,0,.459,1.5A1.623,1.623,0,0,0,29.947,18.867ZM47.115,16.2a3.66,3.66,0,0,1-.635,2.168,3.913,3.913,0,0,1-1.758,1.358,6.944,6.944,0,0,1-2.666.469,14.281,14.281,0,0,1-1.533-.078,10.446,10.446,0,0,1-1.328-.225,5.645,5.645,0,0,1-1.064-.361V17.94a12.99,12.99,0,0,0,1.787.566,9.4,9.4,0,0,0,2.207.254,5.117,5.117,0,0,0,1.816-.283,2.418,2.418,0,0,0,1.123-.83,2.192,2.192,0,0,0,.391-1.309,2.17,2.17,0,0,0-.322-1.221,2.816,2.816,0,0,0-1.074-.9,14.152,14.152,0,0,0-2.031-.869,10.912,10.912,0,0,1-1.6-.7,4.992,4.992,0,0,1-1.162-.879,3.31,3.31,0,0,1-.713-1.133,4.3,4.3,0,0,1-.234-1.475,3.283,3.283,0,0,1,.576-1.953A3.667,3.667,0,0,1,40.5,5.957a6.026,6.026,0,0,1,2.373-.439,9.723,9.723,0,0,1,2.109.215,9.274,9.274,0,0,1,1.787.576l-.517,1.426A11.261,11.261,0,0,0,44.615,7.2a7.3,7.3,0,0,0-1.777-.215,3.922,3.922,0,0,0-1.553.273,2.113,2.113,0,0,0-.957.752A2.017,2.017,0,0,0,40,9.17a2.312,2.312,0,0,0,.313,1.25,2.824,2.824,0,0,0,1.016.889,14.237,14.237,0,0,0,1.855.8,13.043,13.043,0,0,1,2.139.977,3.712,3.712,0,0,1,1.338,1.25A3.458,3.458,0,0,1,47.115,16.2Zm6.133,2.666a5.1,5.1,0,0,0,.82-.068,3.75,3.75,0,0,0,.684-.166v1.26a3.438,3.438,0,0,1-.791.215,5.612,5.612,0,0,1-.976.088,3.925,3.925,0,0,1-1.543-.293,2.39,2.39,0,0,1-1.113-1.016,3.974,3.974,0,0,1-.41-1.973V10.566H48.395V9.775l1.533-.635.645-2.324h.977V9.3h3.135v1.27H51.549v6.3a2.154,2.154,0,0,0,.459,1.5A1.623,1.623,0,0,0,53.248,18.867Zm7.676-9.746a4.065,4.065,0,0,1,2.842.859,3.583,3.583,0,0,1,.928,2.744V20H63.512L63.2,18.418h-.078a5.941,5.941,0,0,1-.937.986,3.485,3.485,0,0,1-1.133.6,5.378,5.378,0,0,1-1.562.2,4.2,4.2,0,0,1-1.738-.342,2.707,2.707,0,0,1-1.191-1.035,3.286,3.286,0,0,1-.43-1.758A2.794,2.794,0,0,1,57.4,14.6a7.381,7.381,0,0,1,3.867-.937l1.846-.078V12.93a2.589,2.589,0,0,0-.6-1.943,2.367,2.367,0,0,0-1.68-.557,5.217,5.217,0,0,0-1.6.244,10.957,10.957,0,0,0-1.445.576l-.5-1.231a8.928,8.928,0,0,1,1.66-.635A7.252,7.252,0,0,1,60.924,9.121Zm2.168,5.606-1.631.068a5.5,5.5,0,0,0-2.822.654,1.876,1.876,0,0,0-.82,1.631,1.623,1.623,0,0,0,.557,1.357,2.312,2.312,0,0,0,1.475.44,3.425,3.425,0,0,0,2.334-.791,2.978,2.978,0,0,0,.908-2.373ZM72.9,9.1a6.109,6.109,0,0,1,.674.039,4.981,4.981,0,0,1,.625.088l-.205,1.5a4.488,4.488,0,0,0-.586-.107,5.055,5.055,0,0,0-.605-.039,2.935,2.935,0,0,0-2.217,1.006,3.457,3.457,0,0,0-.674,1.162,4.389,4.389,0,0,0-.244,1.5V20H68.033V9.3h1.348l.176,1.973h.068a5.252,5.252,0,0,1,.8-1.084,3.6,3.6,0,0,1,1.084-.791A3.227,3.227,0,0,1,72.9,9.1Zm6.777,9.766a5.1,5.1,0,0,0,.82-.068,3.746,3.746,0,0,0,.684-.166v1.26a3.437,3.437,0,0,1-.791.215,5.612,5.612,0,0,1-.977.088,3.925,3.925,0,0,1-1.543-.293,2.389,2.389,0,0,1-1.113-1.016,3.974,3.974,0,0,1-.41-1.973V10.566H74.82V9.775l1.533-.635L77,6.816h.977V9.3h3.135v1.27H77.975v6.3a2.154,2.154,0,0,0,.459,1.5A1.623,1.623,0,0,0,79.674,18.867ZM87.467,9.1a4.36,4.36,0,0,1,2.344.605,3.92,3.92,0,0,1,1.494,1.7,5.836,5.836,0,0,1,.518,2.539v1.006H84.43a4.2,4.2,0,0,0,.938,2.871,3.3,3.3,0,0,0,2.559.986,7.819,7.819,0,0,0,1.8-.186,9.908,9.908,0,0,0,1.621-.547V19.5a7.9,7.9,0,0,1-1.611.527,9.237,9.237,0,0,1-1.875.166,5.568,5.568,0,0,1-2.7-.625,4.371,4.371,0,0,1-1.777-1.855,6.417,6.417,0,0,1-.635-2.988,7.134,7.134,0,0,1,.576-2.988A4.314,4.314,0,0,1,87.467,9.1Zm-.019,1.328a2.659,2.659,0,0,0-2.07.85,4,4,0,0,0-.918,2.373h5.664a4.574,4.574,0,0,0-.3-1.68,2.359,2.359,0,0,0-.869-1.133A2.565,2.565,0,0,0,87.447,10.43ZM98.385,20.2a4.03,4.03,0,0,1-3.223-1.387,6.212,6.212,0,0,1-1.182-4.121,6.238,6.238,0,0,1,1.211-4.17A4.028,4.028,0,0,1,98.414,9.1a4.448,4.448,0,0,1,1.484.225,3.541,3.541,0,0,1,1.094.605,3.684,3.684,0,0,1,.772.85h.117q-.039-.3-.078-.83t-.039-.859V4.8h1.621V20h-1.309l-.244-1.523h-.068a3.717,3.717,0,0,1-.772.869,3.564,3.564,0,0,1-1.1.625A4.517,4.517,0,0,1,98.385,20.2Zm.254-1.348a2.811,2.811,0,0,0,2.431-.977,4.893,4.893,0,0,0,.713-2.9v-.293a5.95,5.95,0,0,0-.683-3.135,2.657,2.657,0,0,0-2.461-1.094A2.482,2.482,0,0,0,96.4,11.6a5.691,5.691,0,0,0-.742,3.125,5.375,5.375,0,0,0,.732,3.047A2.546,2.546,0,0,0,98.639,18.848Z" transform="translate(502.779 -467.5)" fill="#fff"/><path d="M119.5,12.5a10.5,10.5,0,1,0,3.075-7.425A10.5,10.5,0,0,0,119.5,12.5Zm22.5,0a12,12,0,1,1-3.515-8.485A12,12,0,0,1,142,12.5Zm-17.25-.75a.75.75,0,0,0,0,1.5h8.69l-3.221,3.219a.751.751,0,0,0,1.062,1.062l4.5-4.5a.75.75,0,0,0,0-1.062l-4.5-4.5a.757.757,0,0,0-.244-.163.749.749,0,0,0-.574,0,.751.751,0,0,0-.407.406.75.75,0,0,0,.163.818l3.221,3.219Z" transform="translate(502.779 -467.5)" fill="#fff" fill-rule="evenodd"/></g></svg>