<svg xmlns="http://www.w3.org/2000/svg" width="275.757" height="23.35" viewBox="0 0 275.757 23.35"><path d="M25.233,18.8a2.3,2.3,0,0,1-1.7-.6,2.388,2.388,0,0,1-.6-1.725V3.275a2.335,2.335,0,0,1,.6-1.725,2.388,2.388,0,0,1,1.725-.6h6.15a6.644,6.644,0,0,1,4.625,1.475,5.108,5.108,0,0,1,1.65,4.05,5.576,5.576,0,0,1-.75,2.925,4.829,4.829,0,0,1-2.125,1.9,7.931,7.931,0,0,1-3.4.65l.2-.45h1.2a3.462,3.462,0,0,1,1.9.525,3.822,3.822,0,0,1,1.375,1.55l1.25,2.25a2.728,2.728,0,0,1,.375,1.425,1.5,1.5,0,0,1-.55,1.125,2.225,2.225,0,0,1-1.475.425,2.92,2.92,0,0,1-1.6-.4,3.529,3.529,0,0,1-1.075-1.25l-2.275-4.175a1.6,1.6,0,0,0-.775-.75A2.32,2.32,0,0,0,28.908,12H27.533v4.475a2.451,2.451,0,0,1-.575,1.725A2.283,2.283,0,0,1,25.233,18.8Zm2.3-10.05h3.05a3.333,3.333,0,0,0,2.025-.525,1.9,1.9,0,0,0,.7-1.625,1.843,1.843,0,0,0-.7-1.575,3.221,3.221,0,0,0-2.025-.55h-3.05Z" fill="#fff"/><path d="M46.643,18.85a9.1,9.1,0,0,1-3.9-.775,5.863,5.863,0,0,1-2.5-2.25,6.5,6.5,0,0,1-.875-3.425,6.518,6.518,0,0,1,.825-3.325,5.964,5.964,0,0,1,2.3-2.25A6.744,6.744,0,0,1,45.843,6a6.677,6.677,0,0,1,2.5.45,5.061,5.061,0,0,1,1.925,1.275,5.264,5.264,0,0,1,1.2,2,7.676,7.676,0,0,1,.425,2.625.964.964,0,0,1-.275.75,1.377,1.377,0,0,1-.875.225h-7.65v-2.1h5.55l-.4.325a3.8,3.8,0,0,0-.25-1.5,1.847,1.847,0,0,0-.75-.875,2.21,2.21,0,0,0-1.2-.3,2.415,2.415,0,0,0-1.35.375,2.249,2.249,0,0,0-.85,1.05,4.457,4.457,0,0,0-.3,1.75v.225a3.509,3.509,0,0,0,.775,2.55,3.476,3.476,0,0,0,2.45.75,7.2,7.2,0,0,0,1.25-.125,8.778,8.778,0,0,0,1.375-.4,1.581,1.581,0,0,1,1.125-.075,1.277,1.277,0,0,1,.725.55,1.579,1.579,0,0,1,.3.875,1.814,1.814,0,0,1-.225.95,1.655,1.655,0,0,1-.825.7,8.5,8.5,0,0,1-1.875.6A9.806,9.806,0,0,1,46.643,18.85Z" fill="#fff"/><path d="M58.61,18.85a5.125,5.125,0,0,1-2.8-.775,5.326,5.326,0,0,1-1.9-2.225,8.049,8.049,0,0,1-.675-3.425,8.01,8.01,0,0,1,.675-3.45,5.356,5.356,0,0,1,1.9-2.2A5.125,5.125,0,0,1,58.61,6a4.772,4.772,0,0,1,2.475.65A3.238,3.238,0,0,1,62.56,8.325h-.275V2.975A2.269,2.269,0,0,1,62.86,1.3,2.233,2.233,0,0,1,64.51.725a2.2,2.2,0,0,1,1.625.575,2.213,2.213,0,0,1,.6,1.675V16.55a2.269,2.269,0,0,1-.575,1.675,2.146,2.146,0,0,1-1.625.575,2.2,2.2,0,0,1-1.625-.575,2.269,2.269,0,0,1-.575-1.675V15.125l.275,1.225a3.27,3.27,0,0,1-1.475,1.825A4.729,4.729,0,0,1,58.61,18.85Zm1.425-3.275a2.232,2.232,0,0,0,1.2-.325,2.175,2.175,0,0,0,.8-1.025,4.609,4.609,0,0,0,.3-1.8,3.564,3.564,0,0,0-.65-2.4,2.088,2.088,0,0,0-1.65-.75,2.233,2.233,0,0,0-1.2.325,2.154,2.154,0,0,0-.825,1.025,4.5,4.5,0,0,0-.3,1.8,3.625,3.625,0,0,0,.65,2.4A2.115,2.115,0,0,0,60.035,15.575Z" fill="#fff"/><path d="M77.413,18.85a4.859,4.859,0,0,1-2.55-.675,3.294,3.294,0,0,1-1.45-1.825l.275-1.025V16.55a2.269,2.269,0,0,1-.575,1.675,2.112,2.112,0,0,1-1.6.575,2.233,2.233,0,0,1-1.65-.575,2.332,2.332,0,0,1-.55-1.675V2.975A2.269,2.269,0,0,1,69.888,1.3,2.2,2.2,0,0,1,71.513.725a2.233,2.233,0,0,1,1.65.575,2.213,2.213,0,0,1,.6,1.675v5.35h-.3A3.238,3.238,0,0,1,74.938,6.65,4.772,4.772,0,0,1,77.413,6a5.046,5.046,0,0,1,2.8.775,5.126,5.126,0,0,1,1.9,2.2,8.01,8.01,0,0,1,.675,3.45,8.049,8.049,0,0,1-.675,3.425,5.1,5.1,0,0,1-1.9,2.225A5.046,5.046,0,0,1,77.413,18.85Zm-1.4-3.275a2.108,2.108,0,0,0,1.175-.325,2.327,2.327,0,0,0,.825-1.025,4.609,4.609,0,0,0,.3-1.8,3.565,3.565,0,0,0-.65-2.4,2.088,2.088,0,0,0-1.65-.75,2.233,2.233,0,0,0-1.2.325,2.154,2.154,0,0,0-.825,1.025,4.5,4.5,0,0,0-.3,1.8,3.624,3.624,0,0,0,.65,2.4A2.115,2.115,0,0,0,76.013,15.575Z" fill="#fff"/><path d="M91.516,18.85a9.1,9.1,0,0,1-3.9-.775,5.864,5.864,0,0,1-2.5-2.25,6.5,6.5,0,0,1-.875-3.425,6.518,6.518,0,0,1,.825-3.325,5.964,5.964,0,0,1,2.3-2.25A6.744,6.744,0,0,1,90.716,6a6.676,6.676,0,0,1,2.5.45,5.06,5.06,0,0,1,1.925,1.275,5.264,5.264,0,0,1,1.2,2,7.676,7.676,0,0,1,.425,2.625.964.964,0,0,1-.275.75,1.376,1.376,0,0,1-.875.225h-7.65v-2.1h5.55l-.4.325a3.8,3.8,0,0,0-.25-1.5,1.846,1.846,0,0,0-.75-.875,2.21,2.21,0,0,0-1.2-.3,2.415,2.415,0,0,0-1.35.375,2.249,2.249,0,0,0-.85,1.05,4.457,4.457,0,0,0-.3,1.75v.225a3.509,3.509,0,0,0,.775,2.55,3.476,3.476,0,0,0,2.45.75,7.2,7.2,0,0,0,1.25-.125,8.775,8.775,0,0,0,1.375-.4,1.581,1.581,0,0,1,1.125-.075,1.277,1.277,0,0,1,.725.55,1.579,1.579,0,0,1,.3.875,1.812,1.812,0,0,1-.225.95,1.655,1.655,0,0,1-.825.7,8.5,8.5,0,0,1-1.875.6A9.805,9.805,0,0,1,91.516,18.85Z" fill="#fff"/><path d="M100.958,18.8a2.359,2.359,0,0,1-1.7-.575,2.269,2.269,0,0,1-.575-1.675V8.275a2.294,2.294,0,0,1,.55-1.65,2.2,2.2,0,0,1,1.625-.575,2.112,2.112,0,0,1,1.6.575,2.293,2.293,0,0,1,.55,1.65V9.3h-.25a3.835,3.835,0,0,1,1.275-2.375,4.144,4.144,0,0,1,2.6-.925,1.291,1.291,0,0,1,1.075.375,2.106,2.106,0,0,1,.4,1.425,2.409,2.409,0,0,1-.375,1.425,1.881,1.881,0,0,1-1.425.625l-.575.05a2.979,2.979,0,0,0-1.925.75,2.445,2.445,0,0,0-.6,1.8v4.1a2.271,2.271,0,0,1-.575,1.675A2.269,2.269,0,0,1,100.958,18.8Z" fill="#fff"/><path d="M111.8,18.8a2.36,2.36,0,0,1-1.7-.575,2.27,2.27,0,0,1-.575-1.675V8.275a2.293,2.293,0,0,1,.55-1.65A2.2,2.2,0,0,1,111.7,6.05a2.112,2.112,0,0,1,1.6.575,2.293,2.293,0,0,1,.55,1.65V9.3h-.25a3.835,3.835,0,0,1,1.275-2.375,4.144,4.144,0,0,1,2.6-.925,1.291,1.291,0,0,1,1.075.375,2.106,2.106,0,0,1,.4,1.425,2.409,2.409,0,0,1-.375,1.425,1.881,1.881,0,0,1-1.425.625l-.575.05a2.979,2.979,0,0,0-1.925.75,2.445,2.445,0,0,0-.6,1.8v4.1a2.27,2.27,0,0,1-.575,1.675A2.269,2.269,0,0,1,111.8,18.8Z" fill="#fff"/><path d="M124.695,23.3a1.874,1.874,0,0,1-1.25-.4,1.759,1.759,0,0,1-.6-1.05,2.422,2.422,0,0,1,.225-1.375l1.675-3.625v1.8L120.47,8.875a2.526,2.526,0,0,1-.225-1.4,1.549,1.549,0,0,1,.675-1.025,2.5,2.5,0,0,1,1.5-.4,2,2,0,0,1,1.275.375,2.982,2.982,0,0,1,.9,1.4l2.5,6.5h-.85L128.9,7.8a2.956,2.956,0,0,1,.9-1.375,2.36,2.36,0,0,1,1.4-.375,1.74,1.74,0,0,1,1.2.4,1.6,1.6,0,0,1,.55,1.025,2.544,2.544,0,0,1-.225,1.4l-5.675,12.75a2.841,2.841,0,0,1-1,1.325A2.389,2.389,0,0,1,124.695,23.3Z" fill="#fff"/><path d="M144.4,18.8a2.3,2.3,0,0,1-1.7-.6,2.388,2.388,0,0,1-.6-1.725V3.05a2.284,2.284,0,0,1,.6-1.725,2.3,2.3,0,0,1,1.7-.6,2.248,2.248,0,0,1,1.7.6,2.284,2.284,0,0,1,.6,1.725V8.5h.05l6.075-6.7a3.865,3.865,0,0,1,1-.775,2.517,2.517,0,0,1,1.225-.3,1.834,1.834,0,0,1,1.5.55,1.619,1.619,0,0,1,.425,1.25,2,2,0,0,1-.575,1.3l-6.05,6.425V8.375l6.35,7.175a2.233,2.233,0,0,1,.65,1.5,1.655,1.655,0,0,1-.525,1.25,2.036,2.036,0,0,1-1.5.5,2.585,2.585,0,0,1-1.375-.325,6.634,6.634,0,0,1-1.1-1.025l-6.1-6.825h-.05v5.85a2.448,2.448,0,0,1-.575,1.725A2.283,2.283,0,0,1,144.4,18.8Z" fill="#fff"/><path d="M161.8,18.8a2.2,2.2,0,0,1-1.625-.575,2.27,2.27,0,0,1-.575-1.675V8.275a2.3,2.3,0,0,1,.55-1.65,2.2,2.2,0,0,1,1.625-.575,2.111,2.111,0,0,1,1.6.575,2.293,2.293,0,0,1,.55,1.65V9.45l-.275-1.025a4.23,4.23,0,0,1,1.7-1.8A5.161,5.161,0,0,1,167.9,6a4.62,4.62,0,0,1,2.425.575,3.355,3.355,0,0,1,1.425,1.75,8,8,0,0,1,.475,2.975v5.25a2.266,2.266,0,0,1-.575,1.675,2.655,2.655,0,0,1-3.3,0,2.271,2.271,0,0,1-.575-1.675V11.475a2.5,2.5,0,0,0-.4-1.6,1.346,1.346,0,0,0-1.125-.475,2.074,2.074,0,0,0-1.6.65,2.352,2.352,0,0,0-.6,1.7v4.8A1.989,1.989,0,0,1,161.8,18.8Z" fill="#fff"/><path d="M176.957,18.8a2.1,2.1,0,0,1-1.625-.625,2.568,2.568,0,0,1-.575-1.8v-7.9a2.568,2.568,0,0,1,.575-1.8,2.1,2.1,0,0,1,1.625-.625,2.129,2.129,0,0,1,1.65.625,2.5,2.5,0,0,1,.6,1.8v7.9a2.563,2.563,0,0,1-.575,1.8A2.161,2.161,0,0,1,176.957,18.8Zm0-14.525a2.745,2.745,0,0,1-1.825-.55,2.02,2.02,0,0,1-.625-1.6A1.989,1.989,0,0,1,175.132.55a3.344,3.344,0,0,1,3.675,0,1.985,1.985,0,0,1,.625,1.575,2.017,2.017,0,0,1-.625,1.6A2.724,2.724,0,0,1,176.957,4.275Z" fill="#fff"/><path d="M187.889,23.35a15.675,15.675,0,0,1-2.575-.2,9.179,9.179,0,0,1-2.075-.525,1.875,1.875,0,0,1-1.025-.725,1.685,1.685,0,0,1-.275-1,2.023,2.023,0,0,1,.275-.95,1.643,1.643,0,0,1,.725-.625,1.386,1.386,0,0,1,1,.025,8.411,8.411,0,0,0,2,.575,9.522,9.522,0,0,0,1.525.15,3.4,3.4,0,0,0,2.275-.65,2.39,2.39,0,0,0,.775-1.975V15.875h.2a3.3,3.3,0,0,1-1.525,1.725,5,5,0,0,1-2.5.65,5.394,5.394,0,0,1-2.875-.75,5.352,5.352,0,0,1-1.925-2.15,7.239,7.239,0,0,1-.675-3.225,7.493,7.493,0,0,1,.4-2.525,5.858,5.858,0,0,1,1.1-1.925,4.866,4.866,0,0,1,1.725-1.225,5.534,5.534,0,0,1,2.25-.45,4.823,4.823,0,0,1,2.5.65,3.205,3.205,0,0,1,1.5,1.7l-.25,1.025v-1.1a2.23,2.23,0,0,1,.575-1.65,2.286,2.286,0,0,1,1.65-.575,2.112,2.112,0,0,1,1.6.575,2.234,2.234,0,0,1,.575,1.65v8.65a6.09,6.09,0,0,1-1.8,4.8A7.429,7.429,0,0,1,187.889,23.35Zm.175-8.375a2.128,2.128,0,0,0,2.1-1.3,3.674,3.674,0,0,0,.3-1.55,3.107,3.107,0,0,0-.65-2.1,2.2,2.2,0,0,0-1.75-.75,2.276,2.276,0,0,0-1.25.35,2.128,2.128,0,0,0-.85.975,3.768,3.768,0,0,0-.275,1.525,3.1,3.1,0,0,0,.65,2.1A2.169,2.169,0,0,0,188.064,14.975Z" fill="#fff"/><path d="M199.638,18.8a2.2,2.2,0,0,1-1.625-.575,2.271,2.271,0,0,1-.575-1.675V2.975a2.271,2.271,0,0,1,.575-1.675,2.2,2.2,0,0,1,1.625-.575,2.232,2.232,0,0,1,1.65.575,2.213,2.213,0,0,1,.6,1.675v5.45h-.4a4.23,4.23,0,0,1,1.7-1.8A5.161,5.161,0,0,1,205.738,6a4.623,4.623,0,0,1,2.425.575,3.364,3.364,0,0,1,1.425,1.75,8,8,0,0,1,.475,2.975v5.25a2.271,2.271,0,0,1-.575,1.675,2.655,2.655,0,0,1-3.3,0,2.27,2.27,0,0,1-.575-1.675V11.475a2.5,2.5,0,0,0-.4-1.6,1.346,1.346,0,0,0-1.125-.475,2.072,2.072,0,0,0-1.6.65,2.352,2.352,0,0,0-.6,1.7v4.8A1.989,1.989,0,0,1,199.638,18.8Z" fill="#fff"/><path d="M219.049,18.85a7.3,7.3,0,0,1-3.1-.575,3.846,3.846,0,0,1-1.8-1.725,6.392,6.392,0,0,1-.6-2.925V9.55h-.85a1.749,1.749,0,0,1-1.25-.425,1.66,1.66,0,0,1-.425-1.225,1.573,1.573,0,0,1,.425-1.2,1.749,1.749,0,0,1,1.25-.425h.85V4.725a2.271,2.271,0,0,1,.575-1.675,2.655,2.655,0,0,1,3.3,0A2.27,2.27,0,0,1,218,4.725v1.55h2.05a1.694,1.694,0,0,1,1.25.425,1.523,1.523,0,0,1,.45,1.2,1.6,1.6,0,0,1-.45,1.225,1.694,1.694,0,0,1-1.25.425H218v3.925a1.943,1.943,0,0,0,.425,1.375,1.982,1.982,0,0,0,1.4.425,3,3,0,0,0,.675-.075,2.687,2.687,0,0,1,.6-.075.768.768,0,0,1,.65.25A1.806,1.806,0,0,1,222,16.55a3.232,3.232,0,0,1-.225,1.275,1.383,1.383,0,0,1-.8.725,4.634,4.634,0,0,1-.95.2A6.193,6.193,0,0,1,219.049,18.85Z" fill="#fff"/><path d="M239.6,18.85a10.5,10.5,0,0,1-5.025-1.125,7.792,7.792,0,0,1-3.225-3.175,10.008,10.008,0,0,1-1.1-4.8,10.579,10.579,0,0,1,.625-3.725,8.205,8.205,0,0,1,1.85-2.875,8.1,8.1,0,0,1,2.95-1.825A11.209,11.209,0,0,1,239.6.675a10.832,10.832,0,0,1,2.375.275,7.609,7.609,0,0,1,2.2.775,2.151,2.151,0,0,1,.975.95,1.93,1.93,0,0,1,.175,1.175,2.256,2.256,0,0,1-.425,1.075,1.753,1.753,0,0,1-.9.65,1.663,1.663,0,0,1-1.2-.175,7.664,7.664,0,0,0-1.5-.525,5.71,5.71,0,0,0-1.525-.2,5.174,5.174,0,0,0-2.6.6,3.669,3.669,0,0,0-1.55,1.7A6.543,6.543,0,0,0,235.1,9.75a6.717,6.717,0,0,0,.525,2.8,3.812,3.812,0,0,0,1.55,1.725,5.357,5.357,0,0,0,2.6.575,7.165,7.165,0,0,0,1.4-.15,7.092,7.092,0,0,0,1.475-.525A2.035,2.035,0,0,1,243.972,14a1.677,1.677,0,0,1,.95.6,2.168,2.168,0,0,1,.475,1.05,1.87,1.87,0,0,1-.175,1.15,1.932,1.932,0,0,1-.9.925,7.5,7.5,0,0,1-2.175.825A11.1,11.1,0,0,1,239.6,18.85Z" fill="#fff"/><path d="M251.867,18.85a5.323,5.323,0,0,1-2.625-.575,3.773,3.773,0,0,1-1.55-1.775,7.648,7.648,0,0,1-.5-2.975V8.275a2.183,2.183,0,0,1,.575-1.65,2.655,2.655,0,0,1,3.3,0,2.183,2.183,0,0,1,.575,1.65V13.65a2.071,2.071,0,0,0,.375,1.35,1.444,1.444,0,0,0,1.175.45,1.88,1.88,0,0,0,1.475-.65,2.51,2.51,0,0,0,.575-1.725v-4.8a2.183,2.183,0,0,1,.575-1.65,2.655,2.655,0,0,1,3.3,0,2.183,2.183,0,0,1,.575,1.65V16.55q0,2.25-2.15,2.25a2.2,2.2,0,0,1-1.625-.575,2.27,2.27,0,0,1-.575-1.675V15.1l.4,1.225a4.234,4.234,0,0,1-1.55,1.875A4.094,4.094,0,0,1,251.867,18.85Z" fill="#fff"/><path d="M264.482,23.3a2.2,2.2,0,0,1-1.625-.575,2.266,2.266,0,0,1-.575-1.675V8.275a2.293,2.293,0,0,1,.55-1.65,2.2,2.2,0,0,1,1.625-.575,2.148,2.148,0,0,1,1.625.575,2.234,2.234,0,0,1,.575,1.65v1.45L266.382,8.5a3.186,3.186,0,0,1,1.45-1.8,4.727,4.727,0,0,1,2.55-.7,5.048,5.048,0,0,1,2.8.775,5.13,5.13,0,0,1,1.9,2.2,8.01,8.01,0,0,1,.675,3.45,8.049,8.049,0,0,1-.675,3.425,5.105,5.105,0,0,1-1.9,2.225,5.048,5.048,0,0,1-2.8.775,4.771,4.771,0,0,1-2.475-.65,3.222,3.222,0,0,1-1.475-1.7h.3v4.55a2.213,2.213,0,0,1-.6,1.675A2.235,2.235,0,0,1,264.482,23.3Zm4.5-7.725a2.109,2.109,0,0,0,1.175-.325,2.327,2.327,0,0,0,.825-1.025,4.608,4.608,0,0,0,.3-1.8,3.566,3.566,0,0,0-.65-2.4,2.09,2.09,0,0,0-1.65-.75,2.233,2.233,0,0,0-1.2.325,2.154,2.154,0,0,0-.825,1.025,4.5,4.5,0,0,0-.3,1.8,3.621,3.621,0,0,0,.65,2.4A2.113,2.113,0,0,0,268.982,15.575Z" fill="#fff"/><path d="M12.833,1.325a1.833,1.833,0,0,1,1.833,1.833,1.868,1.868,0,0,1-1.073,1.668l-1.677,5.8v4.446H2.75V10.629l-1.678-5.8A1.868,1.868,0,0,1,0,3.158a1.833,1.833,0,1,1,3.667,0A1.742,1.742,0,0,1,3.208,4.35l2.567,2.8.486-3.419a1.833,1.833,0,1,1,2.145,0l.486,3.419,2.539-2.805a1.834,1.834,0,0,1,1.4-3.016ZM.917,16.908H13.75v1.833H.917Z" fill="#fff"/></svg>